<svg xmlns="http://www.w3.org/2000/svg" viewBox="-0.5 -0.5 16 16" fill="#000000" id="List-Star-Light--Streamline-Phosphor.svg" height="16" width="16"><desc>List Star Light Streamline Icon: https://streamlinehq.com</desc><path d="M0.15 2.88598828125c0 -0.23889843750000003 0.1936640625 -0.43256249999999996 0.43256249999999996 -0.43256249999999996h12.6885c0.332982421875 0.00001171875 0.5411074218749999 0.3604921875 0.37459570312499996 0.648861328125 -0.077267578125 0.133822265625 -0.22006640624999999 0.216263671875 -0.37459570312499996 0.216263671875H0.5825625c-0.238904296875 0.00001171875 -0.43256249999999996 -0.19365820312499998 -0.43256249999999996 -0.43256249999999996Zm0.43256249999999996 5.0465625h4.03725c0.33298828125 0 0.5411015625 -0.36046875 0.374607421875 -0.64884375 -0.07726171875 -0.133828125 -0.22007812499999999 -0.216275390625 -0.374607421875 -0.21628124999999998H0.5825625c-0.33298828125 0.00001171875 -0.5411074218749999 0.3604921875 -0.3746015625 0.648861328125 0.0772734375 0.133822265625 0.22006640624999999 0.216263671875 0.3746015625 0.216263671875Zm5.19075 3.748875H0.5825625c-0.33298828125 0 -0.5411015625 0.36046875 -0.37461328125 0.64884375 0.077267578125 0.133828125 0.22007812499999999 0.21626953124999998 0.37461328125 0.21628124999999998h5.19075c0.33298828125 -0.000017578125 0.5411074218749999 -0.3604921875 0.3746015625 -0.648861328125 -0.0772734375 -0.133828125 -0.220072265625 -0.216263671875 -0.3746015625 -0.216263671875Zm8.926646484374999 -3.154822265625 -1.693482421875 1.39789453125 0.516193359375 2.085673828125c0.07993359375 0.32325 -0.22003124999999998 0.6118125 -0.53994140625 0.519416015625 -0.034845703125 -0.01006640625 -0.06828515625 -0.02446875 -0.09953320312500001 -0.04287890625L10.9640625 11.35700390625l-1.919138671875 1.129705078125c-0.28690429687499996 0.16901953125 -0.64918359375 -0.0359296875 -0.6521015625000001 -0.36890625 -0.00031640625 -0.036263671875 0.0039257812500000005 -0.072421875 0.0126328125 -0.107630859375l0.5161875 -2.085673828125 -1.6934765625000001 -1.39789453125c-0.256822265625 -0.211951171875 -0.18789257812500001 -0.62244140625 0.12407226562500001 -0.7388789062500001 0.037974609375 -0.01416796875 0.077748046875 -0.02293359375 0.11816015625 -0.0260390625l2.2349062500000003 -0.173021484375 0.8586328125 -1.99051171875c0.13308398437500002 -0.30523828124999997 0.546685546875 -0.35194921874999996 0.7444921875 -0.08407617187500001 0.019283203125 0.026115234374999997 0.03556640625 0.054316406250000004 0.0485390625 0.08407617187500001l0.858638671875 1.99051171875 2.2349062500000003 0.173021484375c0.33200976562499995 0.025482421875 0.51193359375 0.40081640625000003 0.32386523437500003 0.6756093750000001 -0.022892578125 0.0334453125 -0.050373046875 0.063509765625 -0.0816328125 0.08930859375Zm-1.3769882812499998 0.015134765624999998 -1.429623046875 -0.110302734375c-0.158953125 -0.013634765625 -0.29749804687500003 -0.11366601562499999 -0.36046875 -0.260255859375l-0.5688164062500001 -1.3099453125 -0.56521875 1.3099453125c-0.06296484375 0.14658984374999998 -0.201509765625 0.24662109374999996 -0.36046875 0.260255859375l-1.4296171875 0.110302734375 1.07708203125 0.888919921875c0.12821484375 0.10600195312499999 0.18427734375 0.276146484375 0.1441875 0.43760742187499996l-0.333796875 1.351037109375 1.25155078125 -0.736798828125c0.13529296875000002 -0.079505859375 0.30303515625 -0.079505859375 0.438328125 0l1.252271484375 0.736798828125 -0.333796875 -1.351037109375c-0.04008984375 -0.16146093749999998 0.01597265625 -0.331599609375 0.1441875 -0.43760742187499996Z" stroke-width="1"></path></svg>